<svg xmlns="http://www.w3.org/2000/svg" viewBox="0 0 64 64">
  <defs>
    <linearGradient id="bg" x1="8" y1="5" x2="56" y2="59" gradientUnits="userSpaceOnUse">
      <stop stop-color="#75449A"/>
      <stop offset="1" stop-color="#2B103F"/>
    </linearGradient>
    <linearGradient id="gold" x1="20" y1="14" x2="44" y2="50" gradientUnits="userSpaceOnUse">
      <stop stop-color="#FFF0B8"/>
      <stop offset="0.52" stop-color="#F6D98B"/>
      <stop offset="1" stop-color="#D7A846"/>
    </linearGradient>
  </defs>
  <rect width="64" height="64" rx="16" fill="url(#bg)"/>
  <path fill="url(#gold)" d="M32 7.5c1.4 6.4 3.4 10.1 6.5 12.7 2.8-1.9 6-3 10.9-3.6-3.8 4.2-5.5 7.5-5.8 11.4 3.2 1.2 6.1 3.2 9.9 7-5.8-.9-9.5-.4-12.9 1.4-.1 3.4-1.1 6.8-3.8 11.8-1.7-5.4-3.6-8.5-6.8-10.8-2.8 1.8-6.1 2.7-11.2 3 4-4 5.8-7.2 6.4-11.1-3.1-1.4-5.9-3.6-9.4-7.6 5.7 1.2 9.4.9 12.9-.7.3-3.4 1.4-6.8 3.3-13.5Z" opacity=".98"/>
  <circle cx="32" cy="29" r="9.5" fill="#FFF8DD" stroke="#D7A846" stroke-width="2"/>
  <circle cx="32" cy="29" r="5.5" fill="url(#gold)"/>
  <path d="M17 49.5c5.2 3.2 10.2 4.7 15 4.7s9.8-1.5 15-4.7" fill="none" stroke="#F6D98B" stroke-width="2" stroke-linecap="round" opacity=".72"/>
</svg>
